REM DIRINDEX 1\2\6,1\2\7,1\2\8,1\2\9,1\3\10,1\3\11,1\4\12,1\4\13,1\4\14,1\5\15,1\5\16,1\5\17
REM DIRNAME folder01,folder02,folder03,folder04,folder05,folder06,folder07,folder08,folder09,folder10,folder11,folder12,folder13,folder14,folder15,folder16,folder17
TITLE ""
FILE "1400_3_sec07_0616_0632.mp3" MP3
  TRACK 01 AUDIO
    TITLE "0:"
    INDEX 01 00:00:00
  TRACK 02 AUDIO
    TITLE "17:cjc029_5665"
    INDEX 01 00:00:15
  TRACK 03 AUDIO
    TITLE "0:"
    INDEX 01 00:03:17
  TRACK 04 AUDIO
    TITLE "16:cjc029_5666"
    INDEX 01 00:03:21
  TRACK 05 AUDIO
    TITLE "0:"
    INDEX 01 00:04:31
  TRACK 06 AUDIO
    TITLE "17:cjc029_5667"
    INDEX 01 00:05:16
  TRACK 07 AUDIO
    TITLE "0:"
    INDEX 01 00:06:47
  TRACK 08 AUDIO
    TITLE "16:cjc029_5668"
    INDEX 01 00:06:53
  TRACK 09 AUDIO
    TITLE "0:"
    INDEX 01 00:08:01
  TRACK 10 AUDIO
    TITLE "17:cjc029_5669"
    INDEX 01 00:08:58
  TRACK 11 AUDIO
    TITLE "0:"
    INDEX 01 00:13:06
  TRACK 12 AUDIO
    TITLE "16:cjc029_5670"
    INDEX 01 00:13:14
  TRACK 13 AUDIO
    TITLE "0:"
    INDEX 01 00:14:13
  TRACK 14 AUDIO
    TITLE "17:cjc029_5671"
    INDEX 01 00:14:72
  TRACK 15 AUDIO
    TITLE "0:"
    INDEX 01 00:16:16
  TRACK 16 AUDIO
    TITLE "16:cjc029_5672"
    INDEX 01 00:16:22
  TRACK 17 AUDIO
    TITLE "0:"
    INDEX 01 00:17:37
  TRACK 18 AUDIO
    TITLE "17:cjc029_5673"
    INDEX 01 00:18:21
  TRACK 19 AUDIO
    TITLE "0:"
    INDEX 01 00:19:03
  TRACK 20 AUDIO
    TITLE "16:cjc029_5674"
    INDEX 01 00:19:13
  TRACK 21 AUDIO
    TITLE "0:"
    INDEX 01 00:20:28
  TRACK 22 AUDIO
    TITLE "17:cjc029_5675"
    INDEX 01 00:21:11
  TRACK 23 AUDIO
    TITLE "0:"
    INDEX 01 00:22:38
  TRACK 24 AUDIO
    TITLE "16:cjc029_5676"
    INDEX 01 00:22:40
  TRACK 25 AUDIO
    TITLE "0:"
    INDEX 01 00:23:59
  TRACK 26 AUDIO
    TITLE "17:cjc029_5677"
    INDEX 01 00:24:45
  TRACK 27 AUDIO
    TITLE "0:"
    INDEX 01 00:25:70
  TRACK 28 AUDIO
    TITLE "16:cjc029_5678"
    INDEX 01 00:26:03
  TRACK 29 AUDIO
    TITLE "0:"
    INDEX 01 00:27:12
  TRACK 30 AUDIO
    TITLE "17:cjc029_5679"
    INDEX 01 00:27:73
  TRACK 31 AUDIO
    TITLE "0:"
    INDEX 01 00:29:25
  TRACK 32 AUDIO
    TITLE "16:cjc029_5680"
    INDEX 01 00:29:33
  TRACK 33 AUDIO
    TITLE "0:"
    INDEX 01 00:30:48
  TRACK 34 AUDIO
    TITLE "17:cjc029_5681"
    INDEX 01 00:31:33
  TRACK 35 AUDIO
    TITLE "0:"
    INDEX 01 00:32:50
  TRACK 36 AUDIO
    TITLE "16:cjc029_5682"
    INDEX 01 00:32:56
  TRACK 37 AUDIO
    TITLE "0:"
    INDEX 01 00:34:00
  TRACK 38 AUDIO
    TITLE "17:cjc029_5683"
    INDEX 01 00:34:59
  TRACK 39 AUDIO
    TITLE "0:"
    INDEX 01 00:36:09
  TRACK 40 AUDIO
    TITLE "16:cjc029_5684"
    INDEX 01 00:36:17
  TRACK 41 AUDIO
    TITLE "0:"
    INDEX 01 00:37:30
  TRACK 42 AUDIO
    TITLE "17:cjc029_5685"
    INDEX 01 00:38:16
  TRACK 43 AUDIO
    TITLE "0:"
    INDEX 01 00:39:56
  TRACK 44 AUDIO
    TITLE "16:cjc029_5686"
    INDEX 01 00:39:60
  TRACK 45 AUDIO
    TITLE "0:"
    INDEX 01 00:40:66
  TRACK 46 AUDIO
    TITLE "17:cjc029_5687"
    INDEX 01 00:41:51
  TRACK 47 AUDIO
    TITLE "0:"
    INDEX 01 00:42:68
  TRACK 48 AUDIO
    TITLE "16:cjc029_5688"
    INDEX 01 00:42:72
  TRACK 49 AUDIO
    TITLE "0:"
    INDEX 01 00:44:07
  TRACK 50 AUDIO
    TITLE "17:cjc029_5689"
    INDEX 01 00:44:67
  TRACK 51 AUDIO
    TITLE "0:"
    INDEX 01 00:47:09
  TRACK 52 AUDIO
    TITLE "16:cjc029_5690"
    INDEX 01 00:47:15
  TRACK 53 AUDIO
    TITLE "0:"
    INDEX 01 00:48:20
  TRACK 54 AUDIO
    TITLE "17:cjc029_5691"
    INDEX 01 00:49:02
  TRACK 55 AUDIO
    TITLE "0:"
    INDEX 01 00:50:11
  TRACK 56 AUDIO
    TITLE "16:cjc029_5692"
    INDEX 01 00:50:15
  TRACK 57 AUDIO
    TITLE "0:"
    INDEX 01 00:51:42
  TRACK 58 AUDIO
    TITLE "17:cjc029_5693"
    INDEX 01 00:52:26
  TRACK 59 AUDIO
    TITLE "0:"
    INDEX 01 00:53:31
  TRACK 60 AUDIO
    TITLE "16:cjc029_5694"
    INDEX 01 00:53:37
  TRACK 61 AUDIO
    TITLE "0:"
    INDEX 01 00:54:34
  TRACK 62 AUDIO
    TITLE "17:cjc029_5695"
    INDEX 01 00:55:20
  TRACK 63 AUDIO
    TITLE "0:"
    INDEX 01 00:56:49
  TRACK 64 AUDIO
    TITLE "16:cjc029_5696"
    INDEX 01 00:56:57
  TRACK 65 AUDIO
    TITLE "0:"
    INDEX 01 00:57:72
  TRACK 66 AUDIO
    TITLE "17:cjc029_5697"
    INDEX 01 00:58:58
  TRACK 67 AUDIO
    TITLE "0:"
    INDEX 01 01:00:64
  TRACK 68 AUDIO
    TITLE "16:cjc029_5698"
    INDEX 01 01:00:68
  TRACK 69 AUDIO
    TITLE "0:"
    INDEX 01 01:02:22
